<svg width="20" height="20" viewBox="0 0 20 20" fill="none" xmlns="http://www.w3.org/2000/svg">
<path d="M2.33559 14.8368C2.39312 14.5565 2.35272 14.2649 2.22113 14.0108C1.60021 12.8116 1.25 11.4495 1.25 10C1.25 8.26941 1.76318 6.57769 2.72464 5.13876C3.6861 3.69983 5.05267 2.57832 6.65152 1.91606C8.25037 1.25379 10.0097 1.08051 11.707 1.41813C13.4044 1.75575 14.9635 2.58911 16.1872 3.81282L17.0711 2.92894L16.1872 3.81282C17.4109 5.03653 18.2442 6.59563 18.5819 8.29296C18.9195 9.9903 18.7462 11.7496 18.0839 13.3485C17.4217 14.9473 16.3002 16.3139 14.8612 17.2754C13.4223 18.2368 11.7306 18.75 10 18.75C8.55158 18.75 7.1883 18.3998 5.98921 17.7789C5.73508 17.6473 5.4435 17.6069 5.16316 17.6644L1.60552 18.3945L2.33559 14.8368Z" stroke="#CE3333" stroke-width="2.5" stroke-linecap="round" stroke-linejoin="round"/>
</svg>
