<svg width="52" height="52" viewBox="0 0 52 52" fill="none" xmlns="http://www.w3.org/2000/svg">
<circle cx="26" cy="26" r="26" fill="white"/>
<path d="M12 26C12 18.2678 18.2678 12 26 12C26.6482 12 26.756 12.9702 26.2002 13.3062C25.0181 14.0199 24.014 14.9932 23.2637 16.1524C22.5135 17.3116 22.037 18.6264 21.8701 19.997C21.7033 21.3677 21.8506 22.7584 22.3008 24.0637C22.751 25.3691 23.4924 26.5548 24.4688 27.5312C25.4452 28.5076 26.6309 29.249 27.9363 29.6992C29.2416 30.1494 30.6323 30.2967 32.003 30.1299C33.3736 29.963 34.6884 29.4865 35.8476 28.7363C37.0068 27.986 37.9801 26.9819 38.6938 25.7998C39.0284 25.244 40 25.3518 40 26C40 33.7322 33.7322 40 26 40C20.8178 40 16.2935 37.1847 13.8728 33" stroke="#121212" stroke-width="2" stroke-linecap="round"/>
</svg>
