<svg width="16" height="16" viewBox="0 0 16 16" fill="none" xmlns="http://www.w3.org/2000/svg">
<circle cx="8" cy="8" r="8" fill="#F1F1F1"/>
<path d="M4.4217 12C4.44669 12 4.47169 11.9975 4.49669 11.9938L6.59898 11.625C6.62398 11.62 6.64773 11.6088 6.66522 11.59L11.9634 6.29125C11.975 6.27969 11.9842 6.26595 11.9905 6.25083C11.9968 6.23571 12 6.2195 12 6.20313C12 6.18675 11.9968 6.17054 11.9905 6.15542C11.9842 6.1403 11.975 6.12656 11.9634 6.115L9.88615 4.03625C9.86241 4.0125 9.83116 4 9.79741 4C9.76367 4 9.73242 4.0125 9.70867 4.03625L4.41045 9.335C4.3917 9.35375 4.38045 9.37625 4.37545 9.40125L4.00674 11.5037C3.99458 11.5707 3.99892 11.6396 4.01939 11.7045C4.03987 11.7694 4.07585 11.8284 4.12423 11.8762C4.20672 11.9562 4.31046 12 4.4217 12Z" stroke="#CE3333"/>
</svg>
