<svg width="19" height="14" viewBox="0 0 19 14" fill="none" xmlns="http://www.w3.org/2000/svg">
<path fill-rule="evenodd" clip-rule="evenodd" d="M1.05301 6.727C2.39291 3.3955 5.54638 1 9.49961 1C13.4529 1 16.6063 3.3955 17.947 6.727C18.0177 6.90254 18.0177 7.09746 17.947 7.273C16.6063 10.6045 13.4529 13 9.49961 13C5.54638 13 2.39291 10.6045 1.05301 7.273C0.98233 7.09746 0.98233 6.90254 1.05301 6.727ZM9.49961 9.25C10.1144 9.25 10.7041 9.01295 11.1388 8.59099C11.5735 8.16903 11.8178 7.59674 11.8178 7C11.8178 6.40326 11.5735 5.83097 11.1388 5.40901C10.7041 4.98705 10.1144 4.75 9.49961 4.75C8.8848 4.75 8.29517 4.98705 7.86043 5.40901C7.42569 5.83097 7.18145 6.40326 7.18145 7C7.18145 7.59674 7.42569 8.16903 7.86043 8.59099C8.29517 9.01295 8.8848 9.25 9.49961 9.25Z" stroke="white" stroke-linejoin="round"/>
</svg>
