<svg width="19" height="14" xmlns="http://www.w3.org/2000/svg" fill="none">

 <g>
  <title>Слой 1</title>
  <path id="svg_1" stroke-linejoin="round" stroke="white" d="m1.053,6.727c1.3399,-3.3315 4.49337,-5.727 8.4466,-5.727c3.95329,0 7.10669,2.3955 8.44739,5.727c0.0707,0.17554 0.0707,0.37046 0,0.546c-1.3407,3.3315 -4.4941,5.727 -8.44739,5.727c-3.95323,0 -7.1067,-2.3955 -8.4466,-5.727c-0.07068,-0.17554 -0.07068,-0.37046 0,-0.546zm8.4466,2.523c0.61479,0 1.20449,-0.23705 1.63919,-0.65901c0.4347,-0.42196 0.679,-0.99425 0.679,-1.59099c0,-0.59674 -0.2443,-1.16903 -0.679,-1.59099c-0.4347,-0.42196 -1.0244,-0.65901 -1.63919,-0.65901c-0.61481,0 -1.20444,0.23705 -1.63918,0.65901c-0.43474,0.42196 -0.67898,0.99425 -0.67898,1.59099c0,0.59674 0.24424,1.16903 0.67898,1.59099c0.43474,0.42196 1.02437,0.65901 1.63918,0.65901z" clip-rule="evenodd" fill-rule="evenodd"/>
  <path stroke="white" id="svg_4" d="m0.03284,13.8676l18.93433,-13.73519" opacity="undefined" stroke-linejoin="round" fill="none"/>
 </g>
</svg>