<svg width="28" height="21" viewBox="0 0 28 21" fill="none" xmlns="http://www.w3.org/2000/svg">
<path d="M10.8834 6.30625C10.8834 7.92402 9.56647 9.24248 7.93336 9.24248C6.30025 9.24248 4.98337 7.92402 4.98337 6.30625C4.98337 4.68848 6.30025 3.37002 7.93336 3.37002C9.56647 3.37002 10.8834 4.68848 10.8834 6.30625Z" stroke="#CE3333" stroke-width="2.5"/>
<path d="M9.93707 13.1454C9.19918 12.9778 8.50417 12.9052 7.93332 12.9052C6.82375 12.9052 5.02468 13.2591 3.53166 13.9745C1.95537 14.7299 1.25 15.6097 1.25 16.4229V17.6149H7.50954C7.59074 16.271 8.18486 14.9982 9.0967 13.9671L9.93707 13.1454ZM9.93707 13.1454C9.63093 13.4064 9.34975 13.6808 9.09703 13.9667L9.93707 13.1454Z" stroke="#CE3333" stroke-width="2.5" stroke-linejoin="round"/>
<path d="M11.0499 17.9347C11.0499 16.8371 11.9635 15.7577 13.7622 14.8738C15.4888 14.0253 17.5754 13.603 18.8999 13.603C20.2244 13.603 22.3111 14.0253 24.0376 14.8738C25.8363 15.7577 26.7499 16.8371 26.7499 17.9347V19.4755H11.0499V17.9347Z" stroke="#CE3333" stroke-width="2.5"/>
<path d="M22.7838 5.37596C22.7838 7.50751 21.049 9.24247 18.9004 9.24247C16.7519 9.24247 15.0171 7.50751 15.0171 5.37596C15.0171 3.24441 16.7519 1.50945 18.9004 1.50945C21.049 1.50945 22.7838 3.24441 22.7838 5.37596Z" stroke="#CE3333" stroke-width="2.5"/>
</svg>
