<svg width="52" height="52" viewBox="0 0 52 52" fill="none" xmlns="http://www.w3.org/2000/svg">
<circle cx="26" cy="26" r="26" fill="#2A2A2A"/>
<path d="M26 10V12.7429V10ZM26 39.2571V42V39.2571ZM42 26H39.2571H42ZM12.7429 26H10H12.7429ZM37.312 14.688L35.5419 16.4597L37.312 14.688ZM16.4581 35.5419L14.6864 37.3136L16.4581 35.5419ZM37.312 37.312L35.5419 35.5403L37.312 37.312ZM16.4581 16.4581L14.6864 14.6864L16.4581 16.4581ZM16.9456 22.8C16.2204 24.8529 16.2146 27.0914 16.9292 29.148C17.6437 31.2047 19.0361 32.9574 20.8779 34.1185C22.7197 35.2795 24.9015 35.7801 27.0653 35.5379C29.229 35.2957 31.2461 34.3252 32.7857 32.7857C34.3252 31.2461 35.2957 29.229 35.5379 27.0653C35.7801 24.9015 35.2795 22.7197 34.1185 20.8779C32.9574 19.0361 31.2047 17.6437 29.148 16.9292C27.0914 16.2146 24.8529 16.2204 22.8 16.9456" fill="#2A2A2A"/>
<path d="M26 10V12.7429M26 39.2571V42M42 26H39.2571M12.7429 26H10M37.312 14.688L35.5419 16.4597M16.4581 35.5419L14.6864 37.3136M37.312 37.312L35.5419 35.5403M16.4581 16.4581L14.6864 14.6864M16.9456 22.8C16.2204 24.8529 16.2146 27.0914 16.9292 29.148C17.6437 31.2047 19.0361 32.9574 20.8779 34.1185C22.7197 35.2795 24.9015 35.7801 27.0653 35.5379C29.229 35.2957 31.2461 34.3252 32.7857 32.7857C34.3252 31.2461 35.2957 29.229 35.5379 27.0653C35.7801 24.9015 35.2795 22.7197 34.1185 20.8779C32.9574 19.0361 31.2047 17.6437 29.148 16.9292C27.0914 16.2146 24.8529 16.2204 22.8 16.9456" stroke="white" stroke-width="2" stroke-linecap="round"/>
</svg>
