<svg width="22" height="20" viewBox="0 0 22 20" fill="none" xmlns="http://www.w3.org/2000/svg">
<mask id="path-1-inside-1_330_98" fill="white">
<path d="M6.05 1.02233e-06C2.70875 1.02233e-06 0 2.86955 0 6.40914C0 12.8183 7.15 18.6448 11 20C14.85 18.6448 22 12.8183 22 6.40914C22 2.86955 19.2913 1.02233e-06 15.95 1.02233e-06C13.904 1.02233e-06 12.0945 1.07615 11 2.7233C10.442 1.8816 9.70087 1.19467 8.83925 0.720636C7.97762 0.246604 7.02089 -0.000580114 6.05 1.02233e-06Z"/>
</mask>
<path d="M6.05 1.02233e-06L6.05 2L6.0512 2L6.05 1.02233e-06ZM11 20L10.3359 21.8865C10.7657 22.0378 11.2343 22.0378 11.6641 21.8865L11 20ZM11 2.7233L9.33302 3.82836L10.998 6.34003L12.6658 3.83018L11 2.7233ZM6.05 -2C1.49709 -2 -2 1.8752 -2 6.40914H2C2 3.86389 3.92041 2 6.05 2V-2ZM-2 6.40914C-2 10.3395 0.165886 13.8666 2.59516 16.4655C5.03313 19.0737 8.04419 21.0798 10.3359 21.8865L11.6641 18.1135C10.1058 17.5649 7.61687 15.9802 5.51734 13.7341C3.40911 11.4786 2 8.8879 2 6.40914H-2ZM11.6641 21.8865C13.9558 21.0798 16.9669 19.0737 19.4048 16.4655C21.8341 13.8666 24 10.3395 24 6.40914H20C20 8.8879 18.5909 11.4786 16.4827 13.7341C14.3831 15.9802 11.8942 17.5649 10.3359 18.1135L11.6641 21.8865ZM24 6.40914C24 1.8752 20.5029 -2 15.95 -2V2C18.0796 2 20 3.86389 20 6.40914H24ZM15.95 -2C13.1751 -2 10.7654 -0.537436 9.33422 1.61642L12.6658 3.83018C13.4236 2.68974 14.6329 2 15.95 2V-2ZM12.667 1.61824C11.9354 0.514678 10.9559 -0.397567 9.8033 -1.03168L7.87519 2.47295C8.44585 2.7869 8.94863 3.24852 9.33302 3.82836L12.667 1.61824ZM9.8033 -1.03168C8.64997 -1.6662 7.36171 -2.00078 6.0488 -2L6.0512 2C6.68007 1.99962 7.30528 2.1594 7.87519 2.47295L9.8033 -1.03168Z" fill="#CE3333" mask="url(#path-1-inside-1_330_98)"/>
</svg>
