<svg width="22" height="20" viewBox="0 0 22 20" fill="none" xmlns="http://www.w3.org/2000/svg">
<mask id="path-1-inside-1_330_98" fill="white">
<path d="M6.05 1.02233e-06C2.70875 1.02233e-06 0 2.86955 0 6.40914C0 12.8183 7.15 18.6448 11 20C14.85 18.6448 22 12.8183 22 6.40914C22 2.86955 19.2913 1.02233e-06 15.95 1.02233e-06C13.904 1.02233e-06 12.0945 1.07615 11 2.7233C10.442 1.8816 9.70087 1.19467 8.83925 0.720636C7.97762 0.246604 7.02089 -0.000580114 6.05 1.02233e-06Z"/>
</mask>
<path d="M6.05 1.02233e-06L6.05 7L6.05419 7L6.05 1.02233e-06ZM11 20L8.67572 26.6029C10.18 27.1324 11.82 27.1324 13.3243 26.6029L11 20ZM11 2.7233L5.16555 6.59102L10.9931 15.3819L16.8302 6.59738L11 2.7233ZM6.05 -7C-1.53208 -7 -7 -0.610653 -7 6.40914H7C7 6.44198 6.98299 6.55448 6.86234 6.6823C6.73509 6.8171 6.44735 7 6.05 7V-7ZM-7 6.40914C-7 12.154 -3.88815 16.8516 -1.05757 19.8798C1.80344 22.9406 5.46718 25.4734 8.67572 26.6029L13.3243 13.3971C12.6828 13.1713 10.8466 12.1133 9.17007 10.3197C7.46315 8.49362 7 7.07338 7 6.40914H-7ZM13.3243 26.6029C16.5328 25.4734 20.1966 22.9406 23.0576 19.8798C25.8881 16.8516 29 12.154 29 6.40914H15C15 7.07338 14.5369 8.49362 12.8299 10.3197C11.1534 12.1133 9.31718 13.1713 8.67572 13.3971L13.3243 26.6029ZM29 6.40914C29 -0.610653 23.5321 -7 15.95 -7V7C15.5526 7 15.2649 6.8171 15.1377 6.6823C15.017 6.55448 15 6.44198 15 6.40914H29ZM15.95 -7C11.3527 -7 7.44272 -4.57141 5.16978 -1.15078L16.8302 6.59738C16.7851 6.66534 16.6996 6.76091 16.5481 6.84607C16.3862 6.93708 16.174 7 15.95 7V-7ZM16.8344 -1.14442C15.6689 -2.90262 14.0934 -4.37816 12.2134 -5.41246L5.46505 6.85373C5.30831 6.76749 5.21514 6.66582 5.16555 6.59102L16.8344 -1.14442ZM12.2134 -5.41246C10.3308 -6.44819 8.21377 -7.0013 6.04581 -7L6.05419 7C5.82801 7.00014 5.62441 6.9414 5.46505 6.85373L12.2134 -5.41246Z" fill="#CE3333" mask="url(#path-1-inside-1_330_98)"/>
</svg>
