<svg width="28" height="37" viewBox="0 0 28 37" fill="none" xmlns="http://www.w3.org/2000/svg">
<path d="M8.92064 31.1952H18.4229C18.2324 33.6526 16.178 35.5873 13.6717 35.5873C11.1655 35.5873 9.11111 33.6526 8.92064 31.1952Z" stroke="#CE3333" stroke-width="2.5"/>
<path d="M12.6937 7.50446L12.6941 7.50446L15.2591 7.5097C15.2592 7.5097 15.2593 7.5097 15.2593 7.5097C15.2594 7.5097 15.2595 7.5097 15.2596 7.5097C20.4849 7.52239 24.9611 11.732 25.0264 16.7295V23.3288C25.0264 24.7894 25.2072 26.4332 26.1608 27.8853L26.1611 27.8859L26.6634 28.6499L26.664 28.6509C26.8952 29.0017 26.6265 29.4238 26.2764 29.4238H1.72434C1.37188 29.4238 1.10593 29.0004 1.33599 28.652L1.33737 28.6499L1.83925 27.8865C2.79562 26.4334 2.97434 24.79 2.97434 23.3305V16.7244C3.01187 11.7262 7.478 7.49203 12.6937 7.50446Z" stroke="#CE3333" stroke-width="2.5" stroke-linecap="round" stroke-linejoin="round"/>
<path d="M14.0002 2.112C14.9284 2.112 15.8186 2.47953 16.475 3.13375C17.1314 3.78796 17.5001 4.67527 17.5001 5.60047V7.3447H10.5002V5.60047C10.5002 4.67527 10.869 3.78796 11.5254 3.13375C12.1817 2.47953 13.0719 2.112 14.0002 2.112Z" stroke="#CE3333" stroke-width="2.5" stroke-linecap="round" stroke-linejoin="round"/>
</svg>
