<svg width="28" height="24" viewBox="0 0 28 24" fill="none" xmlns="http://www.w3.org/2000/svg">
<path d="M2.7056 21.3478C3.1752 21.7826 3.74 22 4.4 22H23.6C24.2608 22.0007 24.826 21.7833 25.2956 21.3478C25.7652 20.9122 26 20.3889 26 19.7778V7.55555C26.0008 6.94518 25.766 6.42222 25.2956 5.98667C24.8252 5.55111 24.26 5.33333 23.6 5.33333H20.6771L18.4571 2H9.54286L7.32286 5.33333H4.4C3.7408 5.33407 3.176 5.55185 2.7056 5.98667C2.2352 6.42148 2 6.94444 2 7.55555V19.7778C2.0008 20.3896 2.236 20.913 2.7056 21.3478Z" stroke="#CE3333" stroke-width="2.5" stroke-linejoin="round"/>
<circle cx="14" cy="13" r="4" stroke="#CE3333" stroke-width="2.5"/>
</svg>
