<svg width="28" height="29" viewBox="0 0 28 29" fill="none" xmlns="http://www.w3.org/2000/svg">
<path d="M1.25 14.3971C1.25 7.38445 6.95429 1.69296 14 1.69296C21.0457 1.69296 26.75 7.38445 26.75 14.3971C26.75 21.4097 21.0457 27.1012 14 27.1012C6.95429 27.1012 1.25 21.4097 1.25 14.3971Z" stroke="#CE3333" stroke-width="2.5" stroke-linecap="round" stroke-linejoin="round"/>
<mask id="path-2-inside-1_291_86" fill="white">
<path d="M3.17957 23.2524C3.17957 23.2524 6.30017 19.281 14.0002 19.281C21.7002 19.281 24.8222 23.2524 24.8222 23.2524"/>
</mask>
<path d="M1.21383 21.7077C0.360754 22.7934 0.549288 24.365 1.63493 25.2181C2.72058 26.0712 4.29222 25.8826 5.1453 24.797L1.21383 21.7077ZM22.8568 24.7974C23.7101 25.8829 25.2818 26.0711 26.3672 25.2178C27.4527 24.3644 27.6409 22.7928 26.7876 21.7073L22.8568 24.7974ZM3.17957 23.2524C5.1453 24.797 5.14441 24.7981 5.14352 24.7993C5.14324 24.7996 5.14237 24.8007 5.14181 24.8014C5.14069 24.8028 5.13962 24.8042 5.13859 24.8055C5.13652 24.8081 5.13463 24.8105 5.13292 24.8126C5.12949 24.8169 5.12675 24.8203 5.12472 24.8228C5.12065 24.8277 5.11938 24.8292 5.12096 24.8273C5.1241 24.8236 5.13855 24.8068 5.16461 24.7786C5.21677 24.7222 5.31499 24.6207 5.4617 24.4884C5.75509 24.2239 6.24097 23.8371 6.93993 23.4389C8.32195 22.6515 10.6027 21.781 14.0002 21.781V16.781C9.69764 16.781 6.56808 17.8962 4.4648 19.0945C3.42111 19.6891 2.64559 20.2952 2.11324 20.7752C1.84708 21.0153 1.64135 21.2241 1.49278 21.3848C1.41846 21.4652 1.35835 21.5337 1.31203 21.5882C1.28886 21.6154 1.26913 21.6392 1.25279 21.6592C1.24461 21.6692 1.23729 21.6783 1.2308 21.6864C1.22755 21.6904 1.22452 21.6942 1.22169 21.6978C1.22027 21.6996 1.21891 21.7013 1.2176 21.7029C1.21695 21.7038 1.21601 21.705 1.21568 21.7054C1.21475 21.7066 1.21383 21.7077 3.17957 23.2524ZM14.0002 21.781C17.3977 21.781 19.6788 22.6515 21.0613 23.439C21.7605 23.8373 22.2466 24.2241 22.5401 24.4887C22.6869 24.621 22.7852 24.7225 22.8374 24.779C22.8635 24.8072 22.8779 24.824 22.8811 24.8277C22.8827 24.8296 22.8814 24.8281 22.8773 24.8232C22.8753 24.8207 22.8726 24.8173 22.8691 24.813C22.8674 24.8109 22.8655 24.8085 22.8635 24.8059C22.8624 24.8046 22.8614 24.8033 22.8603 24.8019C22.8597 24.8011 22.8588 24.8 22.8585 24.7997C22.8577 24.7986 22.8568 24.7974 24.8222 23.2524C26.7876 21.7073 26.7866 21.7061 26.7857 21.705C26.7854 21.7045 26.7844 21.7033 26.7838 21.7025C26.7825 21.7009 26.7811 21.6991 26.7797 21.6974C26.7769 21.6938 26.7738 21.69 26.7706 21.6859C26.7641 21.6778 26.7568 21.6688 26.7486 21.6588C26.7323 21.6388 26.7125 21.615 26.6894 21.5878C26.643 21.5333 26.5829 21.4649 26.5086 21.3845C26.36 21.2238 26.1542 21.015 25.888 20.775C25.3555 20.295 24.5799 19.689 23.536 19.0944C21.4325 17.8962 18.3027 16.781 14.0002 16.781V21.781Z" fill="#CE3333" mask="url(#path-2-inside-1_291_86)"/>
<circle cx="14.056" cy="12.1534" r="4.32667" stroke="#CE3333" stroke-width="2.5"/>
</svg>
