<svg width="29" height="30" viewBox="0 0 29 30" fill="none" xmlns="http://www.w3.org/2000/svg">
<path d="M4.52733 21.1973C2.42841 19.1053 1.25 16.2687 1.25 13.3119C1.25 10.3551 2.42841 7.51858 4.52733 5.42655C6.62638 3.33437 9.47417 2.15826 12.4444 2.15826C15.4147 2.15826 18.2625 3.33437 20.3616 5.42655C22.4605 7.51858 23.6389 10.3551 23.6389 13.3119C23.6389 16.2687 22.4605 19.1053 20.3616 21.1973C18.2625 23.2895 15.4147 24.4656 12.4444 24.4656C9.47417 24.4656 6.62638 23.2895 4.52733 21.1973Z" stroke="white" stroke-width="2.5" stroke-linecap="round" stroke-linejoin="round"/>
<path d="M26.416 29.1839C26.9042 29.6721 27.6957 29.6721 28.1838 29.1839C28.672 28.6957 28.672 27.9043 28.1838 27.4161L26.416 29.1839ZM19.416 22.1839L26.416 29.1839L28.1838 27.4161L21.1838 20.4161L19.416 22.1839Z" fill="white"/>
</svg>
