<svg width="28" height="28" viewBox="0 0 28 28" fill="none" xmlns="http://www.w3.org/2000/svg">
<path d="M25.0898 10.8348C25.0957 10.8381 25.1016 10.8413 25.1076 10.8445C26.0054 11.3387 26.2028 11.4653 26.3366 11.6095L26.3382 11.6112C26.4866 11.7705 26.5985 11.9585 26.6671 12.1624C26.729 12.3483 26.745 12.5819 26.7465 13.6127L26.7466 13.6152L26.7494 14.4111C26.7494 14.4113 26.7494 14.4115 26.7494 14.4117C26.7524 15.4362 26.7367 15.6701 26.6757 15.8551C26.6071 16.0609 26.4947 16.2509 26.347 16.4094L26.3453 16.4112C26.2089 16.5581 26.0091 16.684 25.0877 17.1905L24.5961 17.4604C24.5905 17.4633 24.585 17.4663 24.5796 17.4693L24.4255 17.5539C24.4139 17.5603 24.4024 17.5669 24.3911 17.5736C23.8346 17.9027 23.3649 18.3601 23.0222 18.9082L23.0085 18.9306L22.9237 19.0728C22.5392 19.6923 22.3305 20.4045 22.321 21.1337L22.3209 21.15V21.3263L22.3211 21.3492L22.3323 21.9593C22.3323 21.9595 22.3323 21.9596 22.3323 21.9598C22.3506 22.975 22.3383 23.2058 22.2808 23.3897C22.2144 23.599 22.1066 23.7881 21.9627 23.948L21.9604 23.9506C21.8292 24.0971 21.6337 24.2263 20.7348 24.7444C20.7345 24.7445 20.7342 24.7447 20.734 24.7448L20.0422 25.1423L20.0419 25.1424C19.1394 25.6612 18.9218 25.7694 18.7233 25.8109C18.5058 25.8551 18.2811 25.8529 18.0645 25.8043L18.0598 25.8033C17.8619 25.7597 17.6498 25.6516 16.7514 25.1175C16.7514 25.1175 16.7514 25.1175 16.7513 25.1174C16.7511 25.1173 16.7508 25.1171 16.7505 25.117L16.2248 24.8039L16.2222 24.8023L16.0934 24.726C16.0815 24.719 16.0695 24.7122 16.0575 24.7055C15.4954 24.3972 14.8661 24.2225 14.2208 24.2024C14.2078 24.202 14.1948 24.2018 14.1819 24.2018H13.9998V24.2018L13.9903 24.2018L13.8082 24.2032C13.7984 24.2033 13.7887 24.2035 13.7789 24.2038C13.1343 24.2238 12.5074 24.3962 11.946 24.7043C11.9377 24.7089 11.9295 24.7135 11.9213 24.7182L11.7631 24.8098L11.7631 24.8097L11.7513 24.8167L11.2555 25.1109L11.2549 25.1113C10.3586 25.6438 10.1485 25.7516 9.9516 25.7951L9.95001 25.7955C9.73349 25.8436 9.50897 25.8455 9.29163 25.8009L9.29096 25.8008C9.09191 25.7601 8.87929 25.6549 7.97362 25.1389C7.97347 25.1388 7.97331 25.1387 7.97316 25.1387L7.28326 24.7443C6.37362 24.2238 6.17567 24.0946 6.04268 23.9468L6.04252 23.9466C5.896 23.7839 5.78687 23.5925 5.72162 23.3856L5.72155 23.3854C5.66284 23.1994 5.65038 22.9646 5.66867 21.9284L5.66868 21.928L5.67815 21.3825C5.71101 20.6627 5.5488 19.9476 5.20894 19.3119C5.20457 19.3037 5.20011 19.2956 5.19556 19.2875L5.10818 19.1324C4.76241 18.4902 4.24833 17.9542 3.62178 17.5804C3.57733 17.5533 3.53735 17.5312 3.50876 17.5156C3.49409 17.5076 3.48243 17.5012 3.47118 17.4951C3.45352 17.4855 3.43686 17.4764 3.41117 17.4623L3.40992 17.4616L2.90874 17.1855C2.00011 16.6849 1.79863 16.5567 1.66176 16.4102C1.51383 16.2506 1.40247 16.0624 1.33435 15.8584L1.33424 15.8581C1.2718 15.6713 1.25456 15.4373 1.25305 14.4083L1.25304 14.4056L1.25024 13.627C1.25024 13.6266 1.25024 13.6262 1.25024 13.6257C1.24874 12.5921 1.26384 12.3543 1.32563 12.1648C1.39425 11.9601 1.50644 11.7714 1.65544 11.6115L1.65544 11.6115L1.65899 11.6077C1.79318 11.4625 1.99299 11.3348 2.91188 10.8312L2.9126 10.8308L3.41818 10.5533L3.41819 10.5533L3.42522 10.5494L3.58208 10.462C3.59143 10.4568 3.60072 10.4514 3.60993 10.446C4.1627 10.119 4.62989 9.66548 4.97197 9.12222C4.99915 9.0802 5.02105 9.0429 5.0349 9.01923C5.04049 9.00969 5.0454 9.00126 5.0501 8.99319C5.05901 8.97788 5.06718 8.96386 5.0778 8.94593C5.46037 8.33015 5.66918 7.62264 5.68121 6.89775C5.682 6.86568 5.68181 6.8379 5.68145 6.81652C5.68107 6.79396 5.68034 6.77177 5.67998 6.76039C5.67918 6.73509 5.67867 6.71773 5.67867 6.6933L5.6785 6.67247L5.6687 6.0841L5.66867 6.0828C5.65044 5.0528 5.66247 4.81692 5.72091 4.62898C5.78569 4.42374 5.89405 4.23367 6.03949 4.07165L6.04064 4.07037C6.17137 3.92434 6.36881 3.79212 7.26429 3.27908C7.28139 3.26928 7.29825 3.25908 7.31487 3.24849L7.91896 2.90138C7.93293 2.89404 7.94676 2.88643 7.96045 2.87856C8.86527 2.35849 9.07858 2.25264 9.27848 2.21127L9.27863 2.21124C9.49634 2.16616 9.72135 2.16767 9.9384 2.21567C10.1386 2.26055 10.3559 2.37127 11.2497 2.90351L11.2509 2.90425L11.7477 3.19932C11.7553 3.20392 11.7636 3.20895 11.7725 3.21431C11.8208 3.2436 11.8856 3.28282 11.9478 3.31636C12.5102 3.62542 13.1381 3.79689 13.7797 3.81714C13.7897 3.81745 13.7996 3.81765 13.8096 3.81772L13.9917 3.81911V3.81915H14.0012C14.0072 3.81915 14.0134 3.81915 14.0196 3.81915C14.0856 3.81919 14.1614 3.81924 14.2388 3.81521C14.8752 3.79285 15.4976 3.62319 16.058 3.3136L16.058 3.31366L16.0694 3.3072C16.0744 3.3044 16.0799 3.30127 16.0862 3.29775C16.1198 3.27886 16.1728 3.24906 16.2516 3.20173L16.7432 2.91139C16.7509 2.90686 16.7585 2.90225 16.7661 2.89757C17.646 2.37612 17.8549 2.26891 18.0502 2.22564L18.051 2.22547C18.2675 2.17735 18.492 2.1755 18.7094 2.22006L18.71 2.2202C18.909 2.26088 19.1241 2.36654 20.0263 2.88142C20.0264 2.88148 20.0265 2.88153 20.0266 2.88158C20.0267 2.88167 20.0269 2.88176 20.027 2.88185L20.7182 3.27691L20.7199 3.2779C21.6258 3.79381 21.8253 3.92641 21.9583 4.07417L21.9586 4.07452C22.1051 4.2372 22.2142 4.4283 22.2792 4.63472L22.2798 4.63665C22.3378 4.81995 22.3493 5.04909 22.3309 6.07989L22.3308 6.08434L22.3227 6.65371C22.2872 7.45848 22.4956 8.25457 22.9197 8.93944C22.9208 8.94129 22.9218 8.94319 22.9229 8.94512C22.95 8.99244 22.9906 9.06346 23.0342 9.13016C23.3743 9.66809 23.8371 10.1177 24.3844 10.4431C24.3933 10.4485 24.4024 10.4537 24.4115 10.4588L24.5698 10.5476L24.5698 10.5476L24.5772 10.5518L25.0898 10.8348Z" stroke="#CE3333" stroke-width="2.5" stroke-linecap="round" stroke-linejoin="round"/>
<path d="M11.2962 16.839C10.5719 16.0946 10.1591 15.0778 10.1591 14.0105C10.1591 12.9433 10.5719 11.9265 11.2962 11.1821C12.0193 10.4388 12.9926 10.0277 14 10.0277C15.0074 10.0277 15.9808 10.4388 16.7039 11.1821C17.4282 11.9265 17.8409 12.9433 17.8409 14.0105C17.8409 15.0778 17.4282 16.0946 16.7039 16.839C15.9808 17.5823 15.0074 17.9933 14 17.9933C12.9926 17.9933 12.0193 17.5823 11.2962 16.839Z" stroke="#CE3333" stroke-width="2.5" stroke-linecap="round" stroke-linejoin="round"/>
</svg>
